HIERARCHY
ROOT Shoulder
{
	OFFSET 0.00000 0.00000 0.00000
	CHANNELS 6 Xposition Yposition Zposition Zrotation Yrotation Xrotation 
	JOINT Elbow
	{
		OFFSET 2.0  0.5  0.0  
		CHANNELS 3 Zrotation Yrotation Xrotation
		JOINT Wrist
		{
			OFFSET 1.5  0.5 0.0
			CHANNELS 3 Zrotation Yrotation Xrotation
			End Site
			{
				OFFSET 0.5 0.5 0.0
			}
		}
	}
}
MOTION
Frames: 10
Frame Time: .1
0.1 0.0 0.0 0.0 0.0 0.0 5.0 0.0 0.0 0.0 0.0 0.0
0.2 0.0 0.0 0.0 0.0 0.0 10.0 0.0 0.0 0.0 0.0 0.0
0.3 0.0 0.0 0.0 0.0 0.0 15.0 0.0 0.0 0.0 0.0 0.0
0.4 0.0 0.0 0.0 0.0 0.0 20.0 0.0 0.0 0.0 0.0 0.0
0.5 0.0 0.0 0.0 0.0 0.0 25.0 0.0 0.0 0.0 0.0 0.0
0.6 0.0 0.0 0.0 0.0 0.0 30.0 0.0 0.0 0.0 0.0 0.0
0.7 0.0 0.0 0.0 0.0 0.0 35.0 0.0 0.0 0.0 0.0 0.0
0.8 0.0 0.0 0.0 0.0 0.0 40.0 0.0 0.0 0.0 0.0 0.0
0.9 0.0 0.0 0.0 0.0 0.0 45.0 0.0 0.0 0.0 0.0 0.0
1.0 0.0 0.0 0.0 0.0 0.0 50.0 0.0 0.0 0.0 0.0 0.0
